<svg xmlns="http://www.w3.org/2000/svg" version="1.1" xmlns:xlink="http://www.w3.org/1999/xlink" width="512" height="512" x="0" y="0" viewBox="0 0 24 24" style="enable-background:new 0 0 512 512" xml:space="preserve" class=""><g><g fill="none" fill-rule="evenodd"><path fill="#ffffff" d="M12 23c6.075 0 11-4.925 11-11S18.075 1 12 1 1 5.925 1 12s4.925 11 11 11zm0-1c5.523 0 10-4.477 10-10S17.523 2 12 2 2 6.477 2 12s4.477 10 10 10zm-1.664-3.651v-6.35h-1.29V9.896h1.29V8.622c0-1.716.513-2.954 2.393-2.954h2.236v2.1H13.39c-.788 0-.968.524-.968 1.073v1.054h2.427L14.518 12h-2.096v6.349z" opacity="1" data-original="#000000" class=""></path></g></g></svg>