<svg xmlns="http://www.w3.org/2000/svg" version="1.1" xmlns:xlink="http://www.w3.org/1999/xlink" width="512" height="512" x="0" y="0" viewBox="0 0 128 128" style="enable-background:new 0 0 512 512" xml:space="preserve" class=""><g><path d="M99 44.29a28.71 28.71 0 0 1-8.25 2.26 14.4 14.4 0 0 0 6.31-7.95 28.75 28.75 0 0 1-9.12 3.48 14.37 14.37 0 0 0-24.47 13.1 40.77 40.77 0 0 1-29.6-15 14.38 14.38 0 0 0 4.44 19.17 14.3 14.3 0 0 1-6.5-1.8v.18a14.37 14.37 0 0 0 11.52 14.09 14.39 14.39 0 0 1-6.49.25A14.38 14.38 0 0 0 50.26 82a28.81 28.81 0 0 1-17.84 6.15A29.14 29.14 0 0 1 29 88a40.65 40.65 0 0 0 22 6.45c26.42 0 40.86-21.88 40.86-40.86v-1.86A29.18 29.18 0 0 0 99 44.29z" fill="#ffffff" opacity="1" data-original="#000000" class=""></path></g></svg>